<?xml version="1.0" standalone="no"?>
<svg viewBox="0 0 200 200" xmlns="http://www.w3.org/2000/svg">
  <path fill="#dfdfdf" d="M26.5,-38.1C35.2,-35.7,43.6,-29.7,49.7,-21.2C55.8,-12.8,59.5,-1.8,59.2,9.4C58.9,20.5,54.5,32,48.2,44.9C41.9,57.8,33.6,72.1,22.4,74.7C11.1,77.4,-3.1,68.3,-13.2,59C-23.3,49.7,-29.2,40,-41.3,32.3C-53.4,24.6,-71.6,18.8,-78.1,8.1C-84.5,-2.6,-79.1,-18.2,-71.1,-31.1C-63.1,-44.1,-52.4,-54.5,-40.1,-55.4C-27.8,-56.2,-13.9,-47.4,-2.5,-43.5C8.9,-39.6,17.8,-40.6,26.5,-38.1Z" transform="translate(100 100)" />
</svg>
