<?xml version="1.0" standalone="no"?>
<svg viewBox="0 0 200 200" xmlns="http://www.w3.org/2000/svg">
  <path fill="#dfdfdf" d="M41.1,-59.2C52.4,-56.6,60.2,-43.8,64.7,-30.6C69.1,-17.3,70.3,-3.5,70.8,11.9C71.2,27.3,71.1,44.4,63.6,57.6C56,70.8,41.2,80.2,26.6,79.4C12,78.7,-2.4,67.8,-16.8,61.5C-31.1,55.3,-45.5,53.6,-49.1,45C-52.6,36.5,-45.3,21,-47,7C-48.6,-7,-59.3,-19.5,-61.4,-33.6C-63.6,-47.7,-57.3,-63.5,-45.6,-66C-34,-68.4,-17,-57.6,-1.1,-55.9C14.9,-54.3,29.7,-61.8,41.1,-59.2Z" transform="translate(100 100)" />
</svg>
