<?xml version="1.0" standalone="no"?>
<svg viewBox="0 0 200 200" xmlns="http://www.w3.org/2000/svg">
  <path fill="#dfdfdf" d="M46.5,-68.9C59.3,-64.2,68,-49.6,63.2,-36C58.5,-22.3,40.2,-9.6,39.6,6.8C38.9,23.1,55.8,43.1,54.8,51.7C53.8,60.2,35,57.5,22.1,49.5C9.2,41.5,2.4,28.2,-5.7,23.8C-13.8,19.5,-23.3,23.9,-30,22.5C-36.7,21,-40.7,13.7,-40.2,6.8C-39.7,-0.2,-34.6,-6.9,-32.6,-16.3C-30.5,-25.8,-31.5,-38.1,-26.5,-46.4C-21.6,-54.7,-10.8,-59,3,-63.7C16.9,-68.4,33.7,-73.6,46.5,-68.9Z" transform="translate(100 100)" />
</svg>
